<?xml version="1.0" encoding="UTF-8"?>
<svg width="22px" height="29px" viewBox="0 0 22 29" version="1.1" xmlns="http://www.w3.org/2000/svg" xmlns:xlink="http://www.w3.org/1999/xlink">
    <!-- Generator: Sketch 51.2 (57519) - http://www.bohemiancoding.com/sketch -->
    <title>Nickelfox black logo b</title>
    <desc>Created with Sketch.</desc>
    <defs></defs>
    <g id="Page-1" stroke="none" stroke-width="1" fill="none" fill-rule="evenodd">
        <g id="Nickelfox-black-logo-b" transform="translate(-9.000000, -7.000000)" fill="#333333" fill-rule="nonzero">
            <g id="Layer_3_copy" opacity="0.8" transform="translate(20.355872, 15.231317)" fill-opacity="0.8">
                <polyline id="_Path_" points="1.85053381 8.09822064 1.8633452 8.02562278 5.49323843 12.1978648 5.45907473 12.2462633"></polyline>
                <polyline id="_Path_2" points="1.50320285 9.98718861 1.51743772 9.91601423 4.58220641 13.4391459 4.5480427 13.486121"></polyline>
                <polyline id="_Path_3" points="1.15729537 11.8775801 1.17010676 11.8035587 3.67117438 14.6790036 3.63558719 14.7259786"></polyline>
                <polyline id="_Path_4" points="0.63772242 14.7103203 0.650533808 14.6391459 2.30320285 16.5380783 2.26903915 16.5850534"></polyline>
                <polyline id="_Path_5" points="0.46405694 15.655516 0.476868327 15.5829181 1.84768683 17.1572954 1.81352313 17.205694"></polyline>
                <polyline id="_Path_6" points="0.118149466 17.544484 0.130960854 17.4718861 0.936654804 18.397153 0.901067616 18.4455516"></polyline>
                <polyline id="_Path_7" points="1.67686833 9.04199288 1.68967972 8.96939502 5.03772242 12.8185053 5.00355872 12.8669039"></polyline>
                <polyline id="_Path_8" points="1.33096085 10.9309609 1.34377224 10.8597865 4.12669039 14.058363 4.0911032 14.1053381"></polyline>
                <polyline id="_Path_9" points="0.983629893 12.8213523 0.996441281 12.7487544 3.21423488 15.2982206 3.18007117 15.3451957"></polyline>
                <polyline id="_Path_10" points="0.8113879 13.7651246 0.824199288 13.6939502 2.75871886 15.9188612 2.72455516 15.9658363"></polyline>
                <polyline id="_Path_11" points="0.290391459 16.6007117 0.304626335 16.5266904 1.39217082 17.7779359 1.35658363 17.824911"></polyline>
                <polyline id="_Path_12" points="3.15729537 1.02206406 3.17153025 0.949466192 8.91245552 7.55017794 8.87686833 7.59857651"></polyline>
                <polyline id="_Path_13" points="2.80711744 2.90818505 2.82135231 2.83558719 8.00142349 8.79003559 7.9658363 8.83701068"></polyline>
                <polyline id="_Path_14" points="2.63345196 3.85053381 2.64626335 3.77793594 7.54448399 9.40925267 7.51032028 9.45765125"></polyline>
                <polyline id="_Path_15" points="2.37010676 5.26548043 2.38434164 5.19288256 6.86120996 10.33879 6.82562278 10.3871886"></polyline>
                <polyline id="_Path_16" points="2.10960854 6.68042705 2.12241993 6.60925267 6.17651246 11.2683274 6.14234875 11.316726"></polyline>
                <polyline id="_Path_17" points="2.0227758 7.15302491 2.03701068 7.08042705 5.94875445 11.5800712 5.91459075 11.6270463"></polyline>
                <polyline id="_Path_18" points="3.24412811 0.55088968 3.25836299 0.479715302 9.14021352 7.23985765 9.10462633 7.28683274"></polyline>
                <polyline id="_Path_19" points="2.98220641 1.96441281 2.99501779 1.89323843 8.4569395 8.17081851 8.42135231 8.21637011"></polyline>
                <polyline id="_Path_20" points="2.89537367 2.43701068 2.90818505 2.36441281 8.22918149 8.4797153 8.19359431 8.52811388"></polyline>
                <polyline id="_Path_21" points="2.45836299 4.79430605 2.47117438 4.72170819 7.08896797 10.0298932 7.05480427 10.0768683"></polyline>
                <polyline id="_Path_22" points="2.19644128 6.20925267 2.20925267 6.1366548 6.40569395 10.9594306 6.37010676 11.0064057"></polyline>
                <polyline id="_Path_23" points="1.76370107 8.56939502 1.77651246 8.49679715 5.26548043 12.5096085 5.23131673 12.5565836"></polyline>
                <polyline id="_Path_24" points="1.41637011 10.4597865 1.43060498 10.3871886 4.3544484 13.7480427 4.3202847 13.7964413"></polyline>
                <polyline id="_Path_25" points="1.07046263 12.3487544 1.08469751 12.2761566 3.44341637 14.9893238 3.40782918 15.0362989"></polyline>
                <polyline id="_Path_26" points="0.55088968 15.1829181 0.563701068 15.1103203 2.07544484 16.8483986 2.04128114 16.8953737"></polyline>
                <polyline id="_Path_27" points="0.378647687 16.1281139 0.391459075 16.055516 1.61992883 17.4676157 1.58576512 17.5160142"></polyline>
                <polyline id="_Path_28" points="0.031316726 18.0170819 0.0441281139 17.944484 0.708896797 18.7074733 0.673309609 18.7544484"></polyline>
                <polyline id="_Path_29" points="1.59003559 9.51459075 1.60284698 9.44341637 4.80996441 13.1288256 4.77580071 13.1758007"></polyline>
                <polyline id="_Path_30" points="1.24412811 11.4049822 1.2569395 11.3309609 3.89893238 14.3686833 3.8633452 14.4156584"></polyline>
                <polyline id="_Path_31" points="0.898220641 13.2939502 0.911032028 13.2213523 2.98790036 15.6085409 2.95231317 15.655516"></polyline>
                <polyline id="_Path_32" points="0.72455516 14.2377224 0.737366548 14.166548 2.53096085 16.227758 2.49679715 16.2747331"></polyline>
                <polyline id="_Path_33" points="0.204982206 17.0718861 0.217793594 16.9992883 1.16441281 18.0868327 1.12882562 18.1352313"></polyline>
                <polyline id="_Path_34" points="3.33238434 0.0782918149 3.34519573 0.00711743772 9.36797153 6.92953737 9.33238434 6.97793594"></polyline>
                <polyline id="_Path_35" points="3.07046263 1.49466192 3.08327402 1.42206406 8.68327402 7.86049822 8.64911032 7.90747331"></polyline>
                <polyline id="_Path_36" points="2.7202847 3.37935943 2.73451957 3.30676157 7.77224199 9.10035587 7.73807829 9.14733096"></polyline>
                <polyline id="_Path_37" points="2.54519573 4.32170819 2.55800712 4.25053381 7.31672598 9.71957295 7.28113879 9.76654804"></polyline>
                <polyline id="_Path_38" points="2.28327402 5.7366548 2.2975089 5.66405694 6.63345196 10.6491103 6.59786477 10.6960854"></polyline>
                <polyline id="_Path_39" points="1.93594306 7.62562278 1.95017794 7.55302491 5.72099644 11.888968 5.68683274 11.9373665"></polyline>
            </g>
            <g id="Fox" transform="translate(9.537367, 7.259786)">
                <path d="M20.6177936,0.0854092527 L14.2405694,7.31530249 L6.51103203,7.32811388 L0.105338078,0.0854092527 L0.105338078,14.5850534 C0.104211133,14.6024333 0.107532604,14.6541534 0.115302491,14.7402135 C0.127762884,14.8431836 0.166487601,14.9412209 0.227758007,15.024911 L10.1209964,28.4797153 L10.3609319,28.7763463 L10.5921708,28.4797153 L20.4839858,15.024911 C20.5452562,14.9412209 20.5839809,14.8431836 20.5964413,14.7402135 C20.6067104,14.6692195 20.6138279,9.7842847 20.6177936,0.0854092527 Z M9.15871886,26.1893238 L0.737366548,14.7402135 L6.34733096,8.25480427 L9.58291815,25.7067616 L9.15871886,26.1893238 Z M11.5629893,26.1893238 L11.1359431,25.7010676 L14.3715302,8.25053381 L19.9814947,14.7359431 L11.5629893,26.1893238 Z" id="Shape"></path>
                <polygon id="_Path_40" points="16.6462633 15.0135231 13.8049822 18.280427 13.3494662 16.2761566"></polygon>
            </g>
        </g>
    </g>
</svg>