<?xml version="1.0" encoding="UTF-8"?>
<svg width="75px" height="51px" viewBox="0 0 75 51" version="1.1" xmlns="http://www.w3.org/2000/svg" xmlns:xlink="http://www.w3.org/1999/xlink">
    <!-- Generator: Sketch 50.2 (55047) - http://www.bohemiancoding.com/sketch -->
    <title>tc</title>
    <desc>Created with Sketch.</desc>
    <defs></defs>
    <g id="Page-1" stroke="none" stroke-width="1" fill="none" fill-rule="evenodd">
        <g id="Nickelfox-Web-2018_lily_Image_prateek" transform="translate(-247.000000, -3931.000000)" fill="#FFFFFF" fill-rule="nonzero">
            <g id="section-6" transform="translate(0.000000, 3636.000000)">
                <g id="Group-19" transform="translate(150.000000, 141.000000)">
                    <g id="Group-2" transform="translate(60.000000, 138.000000)">
                        <g id="tc">
                            <g id="tc-techcrunch-ae70f5ca426b4b6c74aade00e1ce6916ea32d6dbd554e050cf3758228e59bf2a" transform="translate(37.000000, 16.000000)">
                                <path d="M47.1818182,9.88919668 L65.7272727,9.88919668 L65.7272727,0 L46.975941,0 L46.975941,9.6066482 L37.6363636,9.6066482 L37.6363636,29.1024931 L65.7272727,29.1024931 L65.7272727,19.2132964 L47.1818182,19.2132964 L47.1818182,9.88919668 Z M28.3636364,9.88919668 L37.6363636,9.88919668 L37.6363636,0 L9.54545455,0 L9.54545455,9.88919668 L18.8181818,9.88919668 L18.8181818,29.1024931 L28.3636364,29.1024931 L28.3636364,9.88919668 Z" id="Combined-Shape"></path>
                                <path d="M3.19909091,50.5761773 L3.19909091,41.6730748 L0.0627272727,41.6730748 L0.0627272727,39.7884765 L8.53090909,39.7884765 L8.53090909,41.6730748 L5.37886364,41.6730748 L5.37886364,50.5761773 L3.19909091,50.5761773 Z M12.2788636,45.7996953 C12.268409,45.5072562 12.2187504,45.250022 12.1298864,45.0279848 C12.0410223,44.8059476 11.9234098,44.621822 11.7770455,44.4756025 C11.6306811,44.329383 11.46341,44.2210738 11.2752273,44.1506717 C11.0870445,44.0802697 10.8936374,44.0450693 10.695,44.0450693 C10.2872707,44.0450693 9.9344333,44.1994098 9.63647727,44.5080956 C9.33852124,44.8167813 9.16863657,45.2473102 9.12681818,45.7996953 L12.2788636,45.7996953 Z M9.06409091,47.1319114 C9.0954547,47.7384518 9.26533936,48.2204275 9.57375,48.5778532 C9.88216064,48.9352788 10.2872702,49.1139889 10.7890909,49.1139889 C11.123638,49.1139889 11.418976,49.0354647 11.6751136,48.8784141 C11.9312513,48.7213635 12.0959087,48.5020374 12.1690909,48.2204294 L14.2704545,48.2204294 C14.0299988,49.0435914 13.6118212,49.6772 13.0159091,50.1212742 C12.419997,50.5653485 11.709095,50.7873823 10.8831818,50.7873823 C8.31135078,50.7873823 7.02545455,49.3360394 7.02545455,46.4333102 C7.02545455,45.8159387 7.10909007,45.2581465 7.27636364,44.7599169 C7.4436372,44.2616873 7.68670295,43.8338661 8.00556818,43.4764404 C8.32443341,43.1190148 8.71386134,42.8455341 9.17386364,42.6559903 C9.63386594,42.4664465 10.1618152,42.3716759 10.7577273,42.3716759 C11.9495514,42.3716759 12.8512469,42.7670043 13.4628409,43.5576731 C14.0744348,44.348342 14.3802273,45.5397428 14.3802273,47.1319114 L9.06409091,47.1319114 Z M21.9545455,47.6842936 C21.9022725,48.15003 21.7742055,48.5724357 21.5703409,48.9515235 C21.3664763,49.3306113 21.1077288,49.6555388 20.7940909,49.9263158 C20.480453,50.1970927 20.1223883,50.4082956 19.7198864,50.5599307 C19.3173844,50.7115659 18.8809114,50.7873823 18.4104545,50.7873823 C17.8877247,50.7873823 17.409434,50.6980272 16.9755682,50.5193144 C16.5417023,50.3406016 16.167956,50.0698287 15.8543182,49.7069875 C15.5406803,49.3441464 15.2976145,48.8946633 15.1251136,48.3585249 C14.9526128,47.8223865 14.8663636,47.196901 14.8663636,46.4820499 C14.8663636,45.7671987 14.9526128,45.1498363 15.1251136,44.6299446 C15.2976145,44.1100529 15.5406803,43.6849393 15.8543182,43.3545914 C16.167956,43.0242435 16.5469295,42.7778402 16.99125,42.615374 C17.4355705,42.4529077 17.9295427,42.3716759 18.4731818,42.3716759 C18.9750025,42.3716759 19.4323844,42.4420768 19.8453409,42.5828809 C20.2582975,42.723685 20.6189757,42.9294724 20.9273864,43.2002493 C21.235797,43.4710262 21.4788627,43.7959537 21.6565909,44.1750416 C21.8343191,44.5541294 21.9388635,44.9765351 21.9702273,45.4422715 L19.9159091,45.4422715 C19.8636361,45.0306904 19.7042059,44.7084708 19.4376136,44.4756025 C19.1710214,44.2427342 18.8443201,44.1263019 18.4575,44.1263019 C18.2379535,44.1263019 18.0340919,44.1642102 17.8459091,44.2400277 C17.6577263,44.3158452 17.4930689,44.4431086 17.3519318,44.6218213 C17.2107948,44.8005341 17.0984095,45.0388143 17.0147727,45.336669 C16.931136,45.6345237 16.8893182,46.0000671 16.8893182,46.4333102 C16.8893182,47.3106276 17.0409076,47.9604826 17.3440909,48.3828947 C17.6472742,48.8053068 17.997498,49.0165097 18.3947727,49.0165097 C18.7920475,49.0165097 19.1318168,48.9027851 19.4140909,48.6753324 C19.696365,48.4478798 19.8584089,48.1175368 19.9002273,47.6842936 L21.9545455,47.6842936 Z M27.4118182,50.5761773 L27.4118182,45.6209834 C27.4118182,45.0144429 27.3098873,44.6001605 27.1060227,44.3781233 C26.9021581,44.1560861 26.5650023,44.0450693 26.0945455,44.0450693 C25.8436351,44.0450693 25.6188646,44.0965161 25.4202273,44.1994114 C25.2215899,44.3023066 25.0543189,44.4431086 24.9184091,44.6218213 C24.7824993,44.8005341 24.6805685,45.0063215 24.6126136,45.2391898 C24.5446587,45.472058 24.5106818,45.7238768 24.5106818,45.9946537 L24.5106818,50.5761773 L22.4720455,50.5761773 L22.4720455,39.6585042 L24.5106818,39.6585042 L24.5106818,43.6226593 C24.583864,43.449362 24.6962493,43.2841905 24.8478409,43.1271399 C24.9994325,42.9700893 25.1745445,42.8374106 25.3731818,42.7290997 C25.5718192,42.620789 25.7913625,42.5341416 26.0318182,42.4691551 C26.2722739,42.4041687 26.5231805,42.3716759 26.7845455,42.3716759 C27.5790949,42.3716759 28.2246566,42.5964174 28.72125,43.0459072 C29.2178434,43.495397 29.4661364,44.1208824 29.4661364,44.9223823 L29.4661364,50.5761773 L27.4118182,50.5761773 Z" id="Tech"></path>
                                <path d="M39.5345455,46.8719668 C39.4195448,47.4893383 39.2365921,48.0471305 38.9856818,48.5453601 C38.7347715,49.0435897 38.4185246,49.4714109 38.0369318,49.8288366 C37.655339,50.1862622 37.2136388,50.4624505 36.7118182,50.65741 C36.2099975,50.8523694 35.6559121,50.9498476 35.0495455,50.9498476 C34.3699966,50.9498476 33.7348893,50.8307075 33.1442045,50.5924238 C32.5535198,50.3541401 32.0438658,49.9967198 31.6152273,49.5201524 C31.1865888,49.0435849 30.8494331,48.4560077 30.60375,47.757403 C30.3580669,47.0587984 30.2352273,46.2437719 30.2352273,45.3122992 C30.2352273,44.4024886 30.3476125,43.5820466 30.5723864,42.8509488 C30.7971603,42.1198509 31.1186343,41.5024887 31.5368182,40.9988435 C31.9550021,40.4951983 32.4646561,40.107993 33.0657955,39.8372161 C33.6669348,39.5664391 34.3386326,39.4310526 35.0809091,39.4310526 C35.7290941,39.4310526 36.3171565,39.5312387 36.8451136,39.7316136 C37.3730708,39.9319885 37.827839,40.2081769 38.2094318,40.560187 C38.5910246,40.912197 38.8942034,41.3264796 39.1189773,41.8030471 C39.3437512,42.2796145 39.4822725,42.7886677 39.5345455,43.3302216 L37.3547727,43.3302216 C37.2084083,42.7128501 36.9261385,42.233582 36.5079545,41.892403 C36.0897706,41.5512241 35.6193209,41.3806371 35.0965909,41.3806371 C34.187041,41.3806371 33.5179567,41.7191032 33.0893182,42.3960457 C32.6606797,43.0729882 32.4463636,44.0017393 32.4463636,45.1823269 C32.4463636,46.3845767 32.658066,47.3187431 33.0814773,47.9848546 C33.5048885,48.650966 34.1399958,48.9840166 34.9868182,48.9840166 C35.6350032,48.9840166 36.1551117,48.8025987 36.5471591,48.4397576 C36.9392065,48.0769165 37.2084083,47.5543247 37.3547727,46.8719668 L39.5345455,46.8719668 Z M39.9422727,50.5761773 L39.9422727,42.5828809 L41.8554545,42.5828809 L41.8554545,43.5414266 C42.0227281,43.2706497 42.19784,43.0594468 42.3807955,42.9078116 C42.5637509,42.7561765 42.7519309,42.6397442 42.9453409,42.5585111 C43.1387509,42.477278 43.3347717,42.4258311 43.5334091,42.404169 C43.7320465,42.3825068 43.935908,42.3716759 44.145,42.3716759 L44.4115909,42.3716759 L44.4115909,44.5324654 C44.2234081,44.4999722 44.0352282,44.4837258 43.8470455,44.4837258 C42.6029483,44.4837258 41.9809091,45.1281653 41.9809091,46.4170637 L41.9809091,50.5761773 L39.9422727,50.5761773 Z M49.9002273,50.5761773 L49.9002273,49.4551662 C49.3774975,50.3433147 48.5777326,50.7873823 47.5009091,50.7873823 C47.114089,50.7873823 46.7612516,50.7169814 46.4423864,50.5761773 C46.1235211,50.4353732 45.849092,50.2350013 45.6190909,49.9750554 C45.3890898,49.7151095 45.2087506,49.4064284 45.0780682,49.0490028 C44.9473857,48.6915771 44.8820455,48.2908332 44.8820455,47.846759 L44.8820455,42.5828809 L46.9206818,42.5828809 L46.9206818,47.5218283 C46.9206818,48.5182876 47.3545411,49.0165097 48.2222727,49.0165097 C48.7450025,49.0165097 49.1396577,48.8459227 49.40625,48.5047438 C49.6728423,48.1635648 49.8061364,47.7276203 49.8061364,47.1968975 L49.8061364,42.5828809 L51.8290909,42.5828809 L51.8290909,50.5761773 L49.9002273,50.5761773 Z M57.5843182,50.5761773 L57.5843182,45.7347091 C57.5843182,45.1173376 57.485001,44.7003473 57.2863636,44.4837258 C57.0877263,44.2671042 56.7479569,44.158795 56.2670455,44.158795 C55.2111311,44.158795 54.6831818,44.7707418 54.6831818,45.9946537 L54.6831818,50.5761773 L52.6445455,50.5761773 L52.6445455,42.5828809 L54.5890909,42.5828809 L54.5890909,43.7526316 C54.8295466,43.2977263 55.1484071,42.9538447 55.5456818,42.7209765 C55.9429565,42.4881082 56.4552241,42.3716759 57.0825,42.3716759 C57.448411,42.3716759 57.7881802,42.4285382 58.1018182,42.5422645 C58.4154562,42.6559909 58.6846579,42.8265778 58.9094318,43.0540305 C59.1342057,43.2814831 59.3119312,43.5603792 59.4426136,43.8907271 C59.5732961,44.2210751 59.6386364,44.6028649 59.6386364,45.036108 L59.6386364,50.5761773 L57.5843182,50.5761773 Z M67.4011364,47.6842936 C67.3488634,48.15003 67.2207964,48.5724357 67.0169318,48.9515235 C66.8130672,49.3306113 66.5543198,49.6555388 66.2406818,49.9263158 C65.927044,50.1970927 65.5689792,50.4082956 65.1664773,50.5599307 C64.7639753,50.7115659 64.3275023,50.7873823 63.8570455,50.7873823 C63.3343156,50.7873823 62.856025,50.6980272 62.4221591,50.5193144 C61.9882932,50.3406016 61.6145471,50.0698287 61.3009091,49.7069875 C60.9872711,49.3441464 60.7442054,48.8946633 60.5717045,48.3585249 C60.3992037,47.8223865 60.3129545,47.196901 60.3129545,46.4820499 C60.3129545,45.7671987 60.3992037,45.1498363 60.5717045,44.6299446 C60.7442054,44.1100529 60.9872711,43.6849393 61.3009091,43.3545914 C61.6145471,43.0242435 61.9935205,42.7778402 62.4378409,42.615374 C62.8821614,42.4529077 63.3761336,42.3716759 63.9197727,42.3716759 C64.4215934,42.3716759 64.8789753,42.4420768 65.2919318,42.5828809 C65.7048884,42.723685 66.0655666,42.9294724 66.3739773,43.2002493 C66.6823879,43.4710262 66.9254536,43.7959537 67.1031818,44.1750416 C67.28091,44.5541294 67.3854544,44.9765351 67.4168182,45.4422715 L65.3625,45.4422715 C65.310227,45.0306904 65.1507968,44.7084708 64.8842045,44.4756025 C64.6176123,44.2427342 64.290911,44.1263019 63.9040909,44.1263019 C63.6845444,44.1263019 63.4806828,44.1642102 63.2925,44.2400277 C63.1043172,44.3158452 62.9396598,44.4431086 62.7985227,44.6218213 C62.6573857,44.8005341 62.5450004,45.0388143 62.4613636,45.336669 C62.3777269,45.6345237 62.3359091,46.0000671 62.3359091,46.4333102 C62.3359091,47.3106276 62.4874985,47.9604826 62.7906818,48.3828947 C63.0938651,48.8053068 63.4440889,49.0165097 63.8413636,49.0165097 C64.2386384,49.0165097 64.5784077,48.9027851 64.8606818,48.6753324 C65.1429559,48.4478798 65.3049998,48.1175368 65.3468182,47.6842936 L67.4011364,47.6842936 Z M72.8584091,50.5761773 L72.8584091,45.6209834 C72.8584091,45.0144429 72.7564782,44.6001605 72.5526136,44.3781233 C72.348749,44.1560861 72.0115932,44.0450693 71.5411364,44.0450693 C71.290226,44.0450693 71.0654555,44.0965161 70.8668182,44.1994114 C70.6681808,44.3023066 70.5009098,44.4431086 70.365,44.6218213 C70.2290902,44.8005341 70.1271595,45.0063215 70.0592045,45.2391898 C69.9912496,45.472058 69.9572727,45.7238768 69.9572727,45.9946537 L69.9572727,50.5761773 L67.9186364,50.5761773 L67.9186364,39.6585042 L69.9572727,39.6585042 L69.9572727,43.6226593 C70.0304549,43.449362 70.1428402,43.2841905 70.2944318,43.1271399 C70.4460235,42.9700893 70.6211354,42.8374106 70.8197727,42.7290997 C71.0184101,42.620789 71.2379534,42.5341416 71.4784091,42.4691551 C71.7188648,42.4041687 71.9697715,42.3716759 72.2311364,42.3716759 C73.0256858,42.3716759 73.6712475,42.5964174 74.1678409,43.0459072 C74.6644343,43.495397 74.9127273,44.1208824 74.9127273,44.9223823 L74.9127273,50.5761773 L72.8584091,50.5761773 Z" id="Crunch"></path>
                            </g>
                        </g>
                    </g>
                </g>
            </g>
        </g>
    </g>
</svg>