<?xml version="1.0" encoding="UTF-8"?>
<svg width="92px" height="27px" viewBox="0 0 92 27" version="1.1" xmlns="http://www.w3.org/2000/svg" xmlns:xlink="http://www.w3.org/1999/xlink">
    <!-- Generator: Sketch 50.2 (55047) - http://www.bohemiancoding.com/sketch -->
    <title>Group 13</title>
    <desc>Created with Sketch.</desc>
    <defs></defs>
    <g id="Page-1" stroke="none" stroke-width="1" fill="none" fill-rule="evenodd">
        <g id="Nickelfox-Web-2018_lily_Image_prateek" transform="translate(-892.000000, -3942.000000)" fill="#FFFFFF" fill-rule="nonzero">
            <g id="section-6" transform="translate(0.000000, 3636.000000)">
                <g id="Group-19" transform="translate(150.000000, 141.000000)">
                    <g id="Group-2" transform="translate(60.000000, 138.000000)">
                        <g id="Group-13" transform="translate(653.250000, 0.000000)">
                            <g id="logo-tedx-black" transform="translate(28.750000, 27.000000)">
                                <path d="M75.1466216,0 L80.6713998,8.12305072 L74.9338847,16.6152421 L80.9775617,16.6152421 L83.4312793,12.4152376 L85.9475212,16.6152421 L91.9929376,16.6152421 L86.2554226,8.12305072 L91.7783565,0 L85.7344752,0 L83.4312793,4.01533126 L81.1923472,0 L75.1466216,0 Z M0,0.0519104004 L0,6.95877434 L7.50287401,6.95877434 L7.50287401,26.9997938 L15.7464984,26.9997938 L15.7464984,6.95877434 L23.2465076,6.95877434 L23.2465076,0.0519104004 L0,0.0519104004 Z M24.5277533,0.0519104004 L24.5277533,27 L47.0981814,27 L47.0981814,20.0934448 L32.7764942,20.0934448 L32.7764942,16.7351305 L47.094395,16.7351305 L47.094395,10.3167802 L32.7764942,10.3167802 L32.7764942,6.95877434 L47.094395,6.95877434 L47.094395,0.0519104004 L24.5277533,0.0519104004 Z M48.4824707,0.0519104004 L48.4824707,26.9997938 L60.4079492,26.9997938 C69.7453624,26.9997938 74.0948982,21.7544084 74.0948982,13.4864046 C74.0948982,6.69470326 70.9416244,0.0519104004 62.0188975,0.0519104004 L48.4824707,0.0519104004 Z M56.7309041,6.95877434 L59.356121,6.95877434 C65.3186064,6.95877434 65.8464642,11.6759876 65.8464642,13.3710481 C65.8464642,15.9024336 65.095213,20.0932386 59.9567877,20.0932386 L56.7309041,20.0932386 L56.7309041,6.95877434 Z" id="path8488"></path>
                            </g>
                        </g>
                    </g>
                </g>
            </g>
        </g>
    </g>
</svg>