<?xml version="1.0" encoding="UTF-8"?>
<svg width="64px" height="64px" viewBox="0 0 64 64" version="1.1" xmlns="http://www.w3.org/2000/svg" xmlns:xlink="http://www.w3.org/1999/xlink">
    <!-- Generator: Sketch 51.3 (57544) - http://www.bohemiancoding.com/sketch -->
    <title>005-dribbble</title>
    <desc>Created with Sketch.</desc>
    <defs></defs>
    <g id="Teacher-Dashboard" stroke="none" stroke-width="1" fill="none" fill-rule="evenodd">
        <g id="Group-26" transform="translate(-1699.000000, -536.000000)" fill="#FFFFFF" fill-rule="nonzero">
            <g id="Group-24" transform="translate(0.000000, 379.000000)">
                <g id="Group-22" transform="translate(263.000000, 157.000000)">
                    <g id="005-dribbble" transform="translate(1436.000000, 0.000000)">
                        <path d="M49.0532226,14.3740235 C51.0112305,12.1918945 52.152832,9.9072265 52.5532226,7.56201175 C47.0166015,2.92578125 39.8945312,0 32.125,0 C28.1132812,0 24.2875976,0.77636725 20.7485351,2.13476562 C26.6748047,8.07226562 31.6308594,15.102539 35.5073242,22.6914062 C41.2192382,20.6259765 45.9799805,17.800293 49.0532226,14.3740235 Z" id="Shape"></path>
                        <path d="M51.84375,16.8789062 C48.4038086,20.7128906 43.2905274,23.8310547 37.1816406,26.097168 C37.940918,27.762207 38.6386719,29.461914 39.2954101,31.1835938 C42.4326173,30.508789 45.684082,30.125 49,30.125 C54.2202149,30.125 59.2915039,31.0107422 63.9677735,32.6386719 C63.972168,32.4243164 64,32.2158203 64,32 C64,23.7456055 60.819336,16.2382812 55.6533203,10.571289 C54.8911133,12.7675781 53.6259765,14.8930664 51.84375,16.8789062 Z" id="Shape"></path>
                        <path d="M0.730957,25.2641601 C4.71679688,25.96875 9.1328125,26.375 13.375,26.375 C19.9511719,26.375 26.2680664,25.4414062 31.8979492,23.8378906 C28.0185547,16.3842774 23.03125,9.524414 17.0786133,3.78759763 C8.977539,8.14453125 2.72705075,16.0283203 0.730957,25.2641601 Z" id="Shape"></path>
                        <path d="M63.6445313,36.4995118 C59.1210938,34.796875 54.1425781,33.875 49,33.875 C46.1171875,33.875 43.2861328,34.1772461 40.555664,34.7290039 C43.3276368,43.0419922 44.9316406,52.0273438 45.2055664,61.1606445 C54.9575195,56.7490235 62.0859375,47.456543 63.6445313,36.4995117 Z" id="Shape"></path>
                        <path d="M8.32667268e-17,32 C8.32667268e-17,41.8613281 4.753418,50.8139649 11.809082,56.665039 C12.5566406,51.6918945 14.7988281,46.7993164 18.4506836,42.7045899 C22.7944336,37.8344726 28.8222656,34.1875 35.6484375,32.105957 C35.0131836,30.4672851 34.319336,28.8608399 33.586914,27.2768555 C27.4873047,29.0859375 20.6171875,30.125 13.375,30.125 C8.944336,30.125 4.33349612,29.7016601 0.153808625,28.9672851 C0.059082,29.9667969 0,30.9765625 8.32667268e-17,32 Z" id="Shape"></path>
                        <path d="M21.2504883,45.2001953 C17.5615235,49.336914 15.5629883,54.1884765 15.3066406,59.1518555 C20.1958008,62.2050781 25.9482422,64 32.125,64 C35.3725586,64 38.5058594,63.5058594 41.4604492,62.5991211 C41.3168945,53.2631836 39.7495117,44.0834961 36.8999024,35.6342774 C30.6621094,37.5048828 25.175293,40.7993164 21.2504882,45.2001953 Z" id="Shape"></path>
                    </g>
                </g>
            </g>
        </g>
    </g>
</svg>