<?xml version="1.0" encoding="UTF-8"?>
<svg width="64px" height="64px" viewBox="0 0 64 64" version="1.1" xmlns="http://www.w3.org/2000/svg" xmlns:xlink="http://www.w3.org/1999/xlink">
    <!-- Generator: Sketch 51.3 (57544) - http://www.bohemiancoding.com/sketch -->
    <title>002-facebook</title>
    <desc>Created with Sketch.</desc>
    <defs></defs>
    <g id="Teacher-Dashboard" stroke="none" stroke-width="1" fill="none" fill-rule="evenodd">
        <g id="Group-26" transform="translate(-837.000000, -536.000000)" fill="#FFFFFF" fill-rule="nonzero">
            <g id="Group-24" transform="translate(0.000000, 379.000000)">
                <g id="Group-22" transform="translate(263.000000, 157.000000)">
                    <g id="002-facebook" transform="translate(574.000000, 0.000000)">
                        <path d="M54.625,0 L9.375,0 C4.20605475,0 0,4.20605475 0,9.375 L0,54.625 C0,59.7939453 4.20605475,64 9.375,64 L28.25,64 L28.25,41.375 L20.75,41.375 L20.75,30.125 L28.25,30.125 L28.25,22.5 C28.25,16.2963867 33.2963867,11.25 39.5,11.25 L50.875,11.25 L50.875,22.5 L39.5,22.5 L39.5,30.125 L50.875,30.125 L49,41.375 L39.5,41.375 L39.5,64 L54.625,64 C59.7939453,64 64,59.7939453 64,54.625 L64,9.375 C64,4.20605475 59.7939453,0 54.625,0 Z" id="Shape"></path>
                    </g>
                </g>
            </g>
        </g>
    </g>
</svg>