<?xml version="1.0" encoding="UTF-8"?>
<svg width="117px" height="117px" viewBox="0 0 117 117" version="1.1" xmlns="http://www.w3.org/2000/svg" xmlns:xlink="http://www.w3.org/1999/xlink">
    <!-- Generator: Sketch 51.2 (57519) - http://www.bohemiancoding.com/sketch -->
    <title>Group 3</title>
    <desc>Created with Sketch.</desc>
    <defs></defs>
    <g id="Page-1" stroke="none" stroke-width="1" fill="none" fill-rule="evenodd">
        <g id="Artboard" transform="translate(-55.000000, -542.000000)" fill-rule="nonzero">
            <g id="Group-3" transform="translate(55.000000, 542.000000)">
                <circle id="Oval-3-Copy" fill="#FF6A0C" cx="58.5" cy="58.5" r="58.5"></circle>
                <g id="fox-1-a-copy" transform="translate(17.000000, 17.000000)">
                    <path d="M25.1978343,22.0072935 C19.0996524,13.0123748 11.1734906,5.67661027 1.4193489,0 C-1.47406898,22.781943 0.0563022944,40.9099489 6.01046274,54.3840178 C14.9417034,74.5951211 24.4528501,71.7649324 29.6284542,88.430089 C32.028071,96.1567213 35.352401,100 41.4566231,100 C47.5608452,100 51.7628179,96.2107583 53.3954334,88.430089 C56.4336368,73.9507124 69.5560166,75.8646855 77.8042059,51.5662869 C81.9743759,39.2813539 84.5945816,23.007682 81.9105366,0 C73.2990465,3.76678973 66.211861,9.89546762 57.2840585,22.0072935 C48.356256,34.1191193 34.3451072,35.4996716 25.1978343,22.0072935 Z" id="Path-Copy" fill="#FFFFFF"></path>
                    <path d="M19.8447351,21.8453431 C14.5769661,13.8387772 9.16197624,8.22366281 3.59976554,5 C2.69041231,20.2881374 2.81511728,30.8592714 3.97388043,36.7134019 C4.68781086,40.3202148 9.37688516,49.7924466 19.8447351,44.3528613 C26.7034075,40.7887738 23.8910661,27.9954259 19.8447351,21.8453431 Z" id="Path-Copy" fill="#FF6A0C"></path>
                    <path d="M74.8447351,21.8453431 C69.5769661,13.8387772 64.1619762,8.22366281 58.5997655,5 C57.6904123,20.2881374 57.8151173,30.8592714 58.9738804,36.7134019 C59.6878109,40.3202148 64.3768852,49.7924466 74.8447351,44.3528613 C81.7034075,40.7887738 78.8910661,27.9954259 74.8447351,21.8453431 Z" id="Path-Copy" fill="#FF6A0C" transform="translate(68.500000, 25.500000) scale(-1, 1) translate(-68.500000, -25.500000) "></path>
                    <path d="M41.5,100 C48.1489258,100 50,93.5882251 50,91.6 C50,89.6117749 46.1944204,88 41.5,88 C36.8055796,88 33,89.6117749 33,91.6 C33,93.5882251 34.8510742,100 41.5,100 Z" id="Oval-2" fill="#1A130B"></path>
                    <path d="M18,58.2086167 C25.8662906,57.1138872 30.5329573,60.3276547 32,67.8499194 C31.7366503,68.0500269 31.5271419,68.0500269 31.3714748,67.8499194 C30.572977,66.8234641 29.7983824,65.3641045 29.3120023,65.2780912 C21.311007,63.8631652 23.3684472,59.9793959 20.6842236,59.5373629 C18.8947412,59.2426741 18,58.7997588 18,58.2086167 Z" id="Path-2" fill="#1A130B"></path>
                    <path d="M51,58.2086167 C58.8662906,57.1138872 63.5329573,60.3276547 65,67.8499194 C64.7366503,68.0500269 64.5271419,68.0500269 64.3714748,67.8499194 C63.572977,66.8234641 62.7983824,65.3641045 62.3120023,65.2780912 C54.311007,63.8631652 56.3684472,59.9793959 53.6842236,59.5373629 C51.8947412,59.2426741 51,58.7997588 51,58.2086167 Z" id="Path-2" fill="#1A130B" transform="translate(58.000000, 63.000000) scale(-1, 1) translate(-58.000000, -63.000000) "></path>
                </g>
            </g>
        </g>
    </g>
</svg>