<?xml version="1.0" encoding="UTF-8"?>
<svg width="117px" height="135px" viewBox="0 0 117 135" version="1.1" xmlns="http://www.w3.org/2000/svg" xmlns:xlink="http://www.w3.org/1999/xlink">
    <!-- Generator: Sketch 51.2 (57519) - http://www.bohemiancoding.com/sketch -->
    <title>Fox 2</title>
    <desc>Created with Sketch.</desc>
    <defs>
        <linearGradient x1="-14.4965278%" y1="17.0285449%" x2="50%" y2="56.3711064%" id="linearGradient-1">
            <stop stop-color="#FBBD3D" offset="0%"></stop>
            <stop stop-color="#FF6A0C" offset="100%"></stop>
        </linearGradient>
        <path d="M58.5,135 C66.9750578,135 75.0291871,133.198882 82.3000565,129.958758 C98.1648056,131.307444 109.411358,131.604619 116.039715,130.850282 C116.039715,127.899718 112.725537,121.127535 106.09718,110.533734 C112.960423,100.954005 117,89.2161804 117,76.5354331 C117,55.3982746 105.776214,36.8809841 88.9599192,26.6114282 C82.7832525,22.839395 76.7781339,3.28655573 53.5791238,0.807105838 C54.7038401,3.96771565 55.3146001,6.43090232 55.4114036,8.19666585 C55.4956814,9.73395196 55.4956814,12.3486981 55.4114036,16.0409041 C53.8076394,13.7908695 47.6081143,8.19666585 41.4179377,8.19666585 C41.923542,11.0585322 42.1763442,13.2089113 42.1763442,14.6478031 C42.1763442,15.8560779 42.1763442,17.7658964 42.1763442,20.3772587 C17.8112644,27.4387059 0,49.9083075 0,76.5354331 C0,108.824522 26.1913421,135 58.5,135 Z" id="path-2"></path>
    </defs>
    <g id="Page-1" stroke="none" stroke-width="1" fill="none" fill-rule="evenodd">
        <g id="Artboard" transform="translate(-64.000000, -395.000000)">
            <g id="Fox-2" transform="translate(64.000000, 395.000000)">
                <g id="Path-3">
                    <mask id="mask-3" fill="white">
                        <use xlink:href="#path-2"></use>
                    </mask>
                    <use id="Mask" fill="url(#linearGradient-1)" fill-rule="nonzero" xlink:href="#path-2"></use>
                    <path d="M12.6161399,52.3694905 C11.7377397,64.103235 19.5148881,69.9701072 35.9475852,69.9701072 C60.5966309,69.9701072 99.3933904,85.8329809 116.527388,131.068279 C86.0929155,132.435082 64.7393422,128.093492 52.4666681,118.043511 C58.0299849,125.208327 64.037176,130.49699 70.4882413,133.909499 C85.8593794,145.346699 101.205762,147.898122 116.527388,141.563769 C131.849015,135.229415 130.507524,121.075737 112.502916,99.1027351 C118.477215,69.3887834 108.235733,46.9704455 81.7784712,31.8477216 C77.348038,18.8900829 70.1619141,10.4764587 60.2200994,6.60684901 L60.2200994,28.6748354 C48.8656428,28.3661802 40.2504306,32.5719542 34.3744629,41.2921575 C28.4984952,50.0123608 21.2457209,53.7048051 12.6161399,52.3694905 Z" fill="#FFFFFF" fill-rule="nonzero" mask="url(#mask-3)"></path>
                </g>
                <path d="M48,26 C50.5767621,24.86978 53.5767621,24.30467 57,24.30467 C55.8833578,21.0046293 52.8833578,17.9030727 48,15 L48,26 Z" id="Path-4" fill="#FFFFFF" fill-rule="nonzero"></path>
                <path d="M39,47 C48.0207483,44.1217951 54.0207483,41.4008581 57,38.8371891 C48.2728916,36.4491023 42.2728916,39.1700393 39,47 Z" id="Path-5" fill="#333333" fill-rule="nonzero"></path>
            </g>
        </g>
    </g>
</svg>