<?xml version="1.0" encoding="UTF-8"?>
<svg width="64px" height="64px" viewBox="0 0 64 64" version="1.1" xmlns="http://www.w3.org/2000/svg" xmlns:xlink="http://www.w3.org/1999/xlink">
    <!-- Generator: Sketch 51.3 (57544) - http://www.bohemiancoding.com/sketch -->
    <title>001-instagram</title>
    <desc>Created with Sketch.</desc>
    <defs></defs>
    <g id="Teacher-Dashboard" stroke="none" stroke-width="1" fill="none" fill-rule="evenodd">
        <g id="Group-26" transform="translate(-1125.000000, -536.000000)" fill="#FFFFFF" fill-rule="nonzero">
            <g id="Group-24" transform="translate(0.000000, 379.000000)">
                <g id="Group-22" transform="translate(263.000000, 157.000000)">
                    <g id="001-instagram" transform="translate(862.000000, 0.000000)">
                        <path d="M54.625,0 L9.375,0 C4.20605475,0 0,4.20605475 0,9.375 L0,54.625 C0,59.7939453 4.20605475,64 9.375,64 L54.625,64 C59.7939453,64 64,59.7939453 64,54.625 L64,9.375 C64,4.20605475 59.7939453,0 54.625,0 Z M32.125,48.75 C22.8198242,48.75 15.25,41.1801758 15.25,31.875 C15.25,22.5698242 22.8198242,15 32.125,15 C41.4301758,15 49,22.5698242 49,31.875 C49,41.1801758 41.4301758,48.75 32.125,48.75 Z M50.875,18.75 C47.7734375,18.75 45.25,16.2265625 45.25,13.125 C45.25,10.0234375 47.7734375,7.5 50.875,7.5 C53.9765625,7.5 56.5,10.0234375 56.5,13.125 C56.5,16.2265625 53.9765625,18.75 50.875,18.75 Z" id="Shape"></path>
                        <path d="M50.875,11.25 C49.840332,11.25 49,12.090332 49,13.125 C49,14.159668 49.840332,15 50.875,15 C51.909668,15 52.75,14.159668 52.75,13.125 C52.75,12.090332 51.909668,11.25 50.875,11.25 Z" id="Shape"></path>
                        <path d="M32.125,18.75 C24.8886719,18.75 19,24.6386719 19,31.875 C19,39.1113281 24.8886719,45 32.125,45 C39.3613281,45 45.25,39.1113281 45.25,31.875 C45.25,24.6386719 39.3613281,18.75 32.125,18.75 Z" id="Shape"></path>
                    </g>
                </g>
            </g>
        </g>
    </g>
</svg>