<?xml version="1.0" encoding="UTF-8"?>
<svg width="64px" height="53px" viewBox="0 0 64 53" version="1.1" xmlns="http://www.w3.org/2000/svg" xmlns:xlink="http://www.w3.org/1999/xlink">
    <!-- Generator: Sketch 51.3 (57544) - http://www.bohemiancoding.com/sketch -->
    <title>004-twitter</title>
    <desc>Created with Sketch.</desc>
    <defs></defs>
    <g id="Teacher-Dashboard" stroke="none" stroke-width="1" fill="none" fill-rule="evenodd">
        <g id="Group-26" transform="translate(-1412.000000, -542.000000)" fill="#FFFFFF" fill-rule="nonzero">
            <g id="Group-24" transform="translate(0.000000, 379.000000)">
                <g id="Group-22" transform="translate(263.000000, 157.000000)">
                    <g id="004-twitter" transform="translate(1149.000000, 6.000000)">
                        <path d="M23.8299221,52.2782651 C21.0677388,52.2782651 18.2246588,52.0545809 15.3645224,51.6062378 C10.3269981,50.8157894 5.22758288,48.1807993 3.78460045,47.3918129 L0,45.322612 L4.09746589,43.9751462 C8.57651075,42.5024367 11.3011697,41.588694 14.6739766,40.1578947 C11.2967836,38.5224172 8.69395712,35.5804094 7.44103311,31.7772905 L6.48781673,28.8835282 L7.26949315,29.0029239 C6.52826511,28.2558479 5.94298249,27.4975633 5.48927875,26.8079921 C3.87573096,24.3572124 3.0214425,21.3625731 3.20321634,18.7962962 L3.38255358,16.2704679 L4.89473684,16.8562378 C4.25682264,15.6515594 3.79580894,14.3650097 3.52485377,13.0165693 C2.86452248,9.72807011 3.417154,6.23440543 5.08138405,3.17933723 L6.39863542,0.761208515 L8.16033135,2.87719298 C13.7319687,9.5701755 20.7889864,13.5404483 29.1647174,14.702729 C28.8226121,12.3445419 29.0789474,10.0687134 29.9273879,8.02875247 C30.9152047,5.65350874 32.6725146,3.63937622 35.0077973,2.20370364 C37.6013646,0.609649154 40.7465887,-0.162768094 43.8640351,0.0287524678 C47.17154,0.231968811 50.174464,1.47124759 52.5594542,3.61500968 C53.7241715,3.31237814 54.5823587,2.98927881 55.7422028,2.55263164 C56.4400585,2.28996104 57.2314815,1.99171543 58.2217349,1.65058483 L61.8708577,0.393274885 L59.4912281,7.18957112 C59.6481482,7.17641332 59.8099415,7.16520471 59.9790448,7.15789474 L63.875731,6.98148154 L61.5726121,10.1291423 C61.4405458,10.3094542 61.4069201,10.3606238 61.3601365,10.4312865 C61.1744639,10.7110137 60.9434698,11.0589668 57.7821637,15.2802145 C56.9907407,16.337232 56.5955166,17.7139376 56.6691033,19.1574074 C56.9493177,24.6427876 56.2763158,29.6057505 54.6676413,33.9078948 C53.1461988,37.9780702 50.788499,41.4702729 47.6608187,44.2875244 C43.7904483,47.7729045 38.8552632,50.1593568 32.9917154,51.3796297 C30.115497,51.9780702 27.0268032,52.2782651 23.8299221,52.2782651 Z" id="Shape"></path>
                    </g>
                </g>
            </g>
        </g>
    </g>
</svg>