<?xml version="1.0" encoding="UTF-8"?>
<svg width="122px" height="64px" viewBox="0 0 122 64" version="1.1" xmlns="http://www.w3.org/2000/svg" xmlns:xlink="http://www.w3.org/1999/xlink">
    <!-- Generator: Sketch 50.2 (55047) - http://www.bohemiancoding.com/sketch -->
    <title>Nike</title>
    <desc>Created with Sketch.</desc>
    <defs></defs>
    <g id="Page-1" stroke="none" stroke-width="1" fill="none" fill-rule="evenodd">
        <g id="Nickelfox-Web-2018_lily_Image_prateek" transform="translate(-835.000000, -3175.000000)">
            <g id="section-3" transform="translate(30.000000, 2915.000000)">
                <g id="CLient-Logos" transform="translate(209.000000, 227.000000)">
                    <g id="Nike" transform="translate(582.000000, 0.000000)">
                        <g id="Nike_logo" transform="translate(14.000000, 33.000000)" fill="#000000" fill-rule="nonzero">
                            <polyline id="path16" points="37.2805465 33.2397948 28.8599613 33.2397948 29.817238 18.5876482 24.349148 33.2397948 16.5300923 33.2397948 28.9363114 0.122176489 37.2565345 0.122176489 36.2958821 14.9748959 41.8677099 0.122176489 49.6866899 0.122176489 37.2805465 33.2397948"></polyline>
                            <polyline id="path18" points="38.295789 33.2397948 50.7021203 0.122176489 58.5211015 0.122176489 46.1147702 33.2397948 38.295789 33.2397948"></polyline>
                            <path d="M15.6283989,21.8242321 C4.70182278,34.669909 -5.60506418,51.7621704 3.4989711,59.6335084 C12.3204372,67.2607084 23.3472242,62.7446534 30.8654974,59.7340153 C38.3837693,56.7231548 121.485647,20.5948788 121.485647,20.5948788 C122.287786,20.193545 122.137335,19.6917374 121.134852,19.9426418 C120.730218,20.0438669 30.6649623,44.4797606 30.6649623,44.4797606 C19.2371052,47.6911988 6.20547766,40.6912256 15.6283989,21.8242321" id="path20"></path>
                            <path d="M68.6952866,31.0319902 L68.1942314,13.7707066 L80.0162169,0.776291908 L68.6952866,31.0319902 Z M93.8981381,5.6416855 L95.9991575,0.122176489 L72.141334,0.122176489 L63.9484838,10.0574803 L67.730507,0.122176489 L59.8113516,0.122176489 L47.5053824,33.2397948 L55.3243624,33.2397948 L60.5780362,19.3905026 L60.938024,33.2397948 L84.9295997,33.1877728 L87.2135202,26.8169563 L78.0913448,26.8169563 L81.0882992,18.7884079 L88.6065711,18.7884079 L90.9195691,12.6164739 L83.401296,12.6164739 L85.9787973,5.6416855 L93.8981381,5.6416855 Z" id="path28"></path>
                        </g>
                        <rect id="Rectangle-6" x="0" y="0" width="150" height="130"></rect>
                    </g>
                </g>
            </g>
        </g>
    </g>
</svg>