<?xml version="1.0" encoding="UTF-8"?>
<svg width="132px" height="99px" viewBox="0 0 132 99" version="1.1" xmlns="http://www.w3.org/2000/svg" xmlns:xlink="http://www.w3.org/1999/xlink">
    <!-- Generator: Sketch 50.2 (55047) - http://www.bohemiancoding.com/sketch -->
    <title>NYT</title>
    <desc>Created with Sketch.</desc>
    <defs></defs>
    <g id="Page-1" stroke="none" stroke-width="1" fill="none" fill-rule="evenodd">
        <g id="Nickelfox-Web-2018_lily_Image_prateek" transform="translate(-682.000000, -3373.000000)">
            <g id="section-3" transform="translate(30.000000, 2915.000000)">
                <g id="CLient-Logos" transform="translate(209.000000, 227.000000)">
                    <g id="NYT" transform="translate(437.000000, 214.000000)">
                        <g id="fcf_new_york_times_logo" transform="translate(6.000000, 17.000000)" fill="#1E1E1E" fill-rule="nonzero">
                            <path d="M57.4871186,0.259540541 C58.2505932,0.323756757 59.4492203,0.683367568 60.3525254,1.44058378 C61.3117627,2.33158378 61.5304576,3.68467297 61.1943051,4.91414595 C60.8950678,6.0093 60.5600339,6.57841622 59.3918898,7.33563243 C58.2117203,8.0982 56.7854492,8.03344865 56.7854492,8.03344865 L56.7854492,12.7795622 L59.1989237,14.6479865 L56.7854492,16.5107919 L56.7854492,22.9757595 C56.7854492,22.9757595 59.2045169,21.6486243 60.7035,18.6786243 C60.7035,18.6786243 60.7650254,18.5154081 60.9076525,18.2103811 C61.0418898,19.0050568 60.9663814,20.6158135 60.0239237,22.6814351 C59.3163814,24.2386784 58.0271441,25.7343811 56.4107034,26.5879216 C53.5469746,28.1077054 51.399178,28.2521919 49.0947712,27.7946514 C46.398839,27.2621919 43.9490085,25.8119757 42.2794322,23.2834622 C41.1048559,21.5068135 40.5790932,19.4331649 40.6266356,17.204327 C40.7217203,12.8269216 44.1223983,9.05421892 48.0516356,7.64681351 C48.5298559,7.47557027 48.7200254,7.36319189 49.3996017,7.30165135 C49.0863814,7.5050027 48.7256186,7.76721892 48.2837542,8.04816486 C47.0196864,8.84284054 45.9346017,10.4241649 45.473161,11.644273 L53.0967203,8.39065135 L53.0967203,18.5959459 L46.944178,21.5472162 C47.6461271,22.4762108 49.7743475,23.8830811 51.5949407,24.0816162 C54.6907881,24.4091189 56.5085847,23.1156973 56.5085847,23.1156973 L56.5085847,16.5105243 L54.1090932,14.6477189 L56.5113814,12.7846459 L56.5113814,8.03505405 C55.2025678,7.89003243 53.6112966,7.47664054 52.6800254,7.25643243 C51.3124831,6.93428108 46.7540085,5.70989189 46.0380763,5.60821622 C45.3221441,5.50600541 44.4384153,5.53864865 43.9042627,5.99485135 C43.3701102,6.45613784 43.0373136,7.26686757 43.2666356,7.99705946 C43.3952797,8.41045135 43.6917203,8.6526 43.9154492,8.88805946 C43.9154492,8.88805946 43.6525678,8.86665405 43.1743475,8.5932 C42.3129915,8.09980541 41.6585847,7.13335135 41.5802797,5.94160541 C41.4796017,4.37901081 42.1507881,2.97240811 43.4987542,2.02709189 C44.6677373,1.30813784 45.9905339,0.846316216 47.5314661,1.05582162 C49.7743475,1.36165135 52.7946864,2.57507027 55.4822288,3.19261622 C56.5225678,3.43422973 57.3307881,3.51476757 58.0607034,3.10699459 C58.4018898,2.8701973 59.003161,2.26335405 58.5109576,1.45877838 C57.9404492,0.513194595 56.8436186,0.5346 55.9129068,0.368172973 C56.7127373,0.207632432 56.8889237,0.207632432 57.4901949,0.261145946 L57.4871186,0.259540541 Z M48.4233051,20.5323324 L48.4233051,10.6858459 L45.3274576,12.0062919 C45.3274576,12.0062919 44.5388136,13.6973189 44.6766864,16.1509135 C44.7857542,18.0680351 45.9055169,20.3613568 46.7663136,21.3221919 L48.4230254,20.5301919 L48.4233051,20.5323324 Z M87.0526017,10.2074351 C87.0526017,10.2074351 84.7146356,11.5586514 83.1457373,12.4550027 C81.5740424,13.3460027 79.4681949,14.3279757 79.4681949,14.3279757 L79.4681949,23.7249486 L78.0642966,24.8032459 L78.2488729,25.0119486 L79.6192119,23.9550568 L83.9148051,27.6688946 L91.3789576,22.0098405 L91.2027712,21.8038135 L87.0749746,24.8995703 L83.6854831,21.8626784 L83.6854831,20.7364865 L90.4980254,15.9416757 L87.0498051,10.2077027 L87.0526017,10.2074351 Z M87.1504831,17.9642189 L83.6854831,20.3910568 L83.6854831,12.3161351 L87.1476864,17.9644865 L87.1504831,17.9642189 Z M67.4819237,31.2058703 C68.4607373,31.4359784 70.1890424,31.5654811 72.2753136,30.5663838 C74.5825169,29.4602595 75.7431102,27.1136919 75.7263305,24.7093297 L75.8242119,21.2994486 L75.8270085,13.8525081 L77.300822,12.7742108 L77.1274322,12.564973 L75.6731949,13.6111622 L72.3200593,10.0444865 L68.0216695,13.5769135 L68.0216695,1.57383243 L62.6493814,5.54721081 C62.8870932,5.6916973 63.6505678,5.82601622 63.6729407,6.85133514 L63.6729407,23.6666189 L61.3965,25.282727 L61.5503136,25.5101595 L62.6493814,24.7261865 L65.7088729,27.4500243 L70.5246356,23.7843486 L70.3484492,23.5756459 L69.215822,24.4345378 L68.0160763,23.2947 L68.0272627,13.9271595 L69.431161,12.7846459 L71.5241441,15.2703486 C71.5241441,15.2703486 71.5185508,21.3387811 71.5241441,23.3508892 C71.5073644,25.4994568 71.5017712,28.1778081 70.3216017,29.4728351 C69.1414322,30.7732135 68.6688051,30.8748892 67.4690593,31.2147 L67.4819237,31.2058703 Z" id="Shape"></path>
                            <g id="Group" transform="translate(24.889831, 69.835135)">
                                <path d="M64.5759661,10.2371351 C64.5759661,10.2371351 62.2393983,11.5899568 60.669661,12.4865757 C59.0985254,13.3775757 56.9921186,14.3603514 56.9921186,14.3603514 L56.9921186,23.7562541 L55.586822,24.8358892 L55.7741949,25.0445919 L57.1445339,23.9877 L61.4401271,27.7042135 L68.9053983,22.0451595 L68.7292119,21.8418081 L64.6016949,24.9372973 L61.2102458,21.8993351 L61.2102458,20.7664541 L68.0227881,15.9716432 L64.5745678,10.2376703 L64.5759661,10.2371351 Z M64.6755254,17.9949892 L61.2116441,20.4226297 L61.2116441,12.3469054 L64.6755254,17.9952568 L64.6755254,17.9949892 Z M29.5266102,14.1669 L29.7095085,14.3710541 L31.1162034,13.2114162 L33.2030339,15.4715595 L33.2030339,23.2355676 L32.1895424,24.1212162 L35.442,27.6381243 L38.7783559,24.4915297 L37.4074576,23.1333568 L37.4074576,13.7428054 L38.2372119,13.1092054 L40.5444153,15.6858811 L40.5444153,23.4284838 L39.6774661,24.2579432 L42.7397542,27.5543757 L46.0145847,24.4184838 L44.8112034,23.2117541 L44.7798814,13.7853486 L45.6650085,13.0977 L48.0706525,15.6315649 L48.0706525,23.3321595 L47.2792119,24.0893757 L50.6603136,27.6185919 L55.1992119,23.6077541 L55.0062458,23.4097541 L53.9043814,24.3810243 L52.2124322,22.5883216 L52.2124322,13.798727 L53.8428559,12.6134027 L53.6722627,12.3993486 L52.0362458,13.5873486 L48.9459915,10.2748622 L44.5301441,13.6141054 L41.4342966,10.3925919 L37.1694661,13.5873486 L34.0484492,10.4086459 L29.5179407,14.1759973 L29.5266102,14.1669 Z" id="Shape"></path>
                                <path d="M20.2843729,13.9255541 L20.4678305,14.1294405 L21.6555508,13.1469324 L23.5138983,15.2513514 L23.5138983,24.1265676 L22.2034068,25.2219892 L22.3863051,25.4264108 L23.7622373,24.3036973 L26.7585254,27.6108324 L31.0890763,23.9125135 L30.9064576,23.7080919 L29.6312034,24.781573 L27.8408136,22.8055865 L27.8408136,14.1294405 L29.3509831,12.8785622 L29.1683644,12.6744081 L27.7337034,13.8543811 L24.5791271,10.3385432 L20.2835339,13.9239486 M21.530822,6.57386757 L24.7888729,3.71624595 L27.4400593,6.52838108 L24.1652288,9.37262432 L21.5280254,6.56851622" id="Shape"></path>
                                <path d="M17.1482542,0.28817027 C17.9125678,0.352386486 19.1114746,0.712264865 20.0142203,1.46948108 C20.9734576,2.36048108 21.1915932,3.71357027 20.856,4.94304324 C20.5567627,6.0381973 20.2222881,6.60731351 19.0527458,7.36452973 C17.8734153,8.1270973 16.4451864,8.06234595 16.4451864,8.06234595 L16.4451864,12.8084595 L18.8592203,14.6768838 L16.4451864,16.5396892 L16.4451864,23.0046568 C16.4451864,23.0046568 18.8628559,21.6785919 20.3632373,18.7093946 C20.3632373,18.7093946 20.4247627,18.5477838 20.5645932,18.2419541 C20.6979915,19.0366297 20.6227627,20.6473865 19.6817034,22.7146135 C18.9730424,24.2713216 17.6838051,25.7694324 16.0676441,26.6227054 C13.2033559,28.1424892 11.0552797,28.2869757 8.75255085,27.8294351 C6.05522034,27.2969757 3.60678814,25.8467595 1.93497458,23.3182459 C0.757601695,21.5415973 0.231838983,19.4679486 0.282177966,17.2391108 C0.374466102,12.8617054 3.77794068,9.0890027 7.70438136,7.6815973 C8.17980508,7.51035405 8.36997458,7.3953 9.04955085,7.33643514 C8.73633051,7.53978649 8.37277119,7.8020027 7.93090678,8.08294865 C6.66683898,8.87762432 5.58175424,10.4616243 5.11751695,11.6790568 L12.7382797,8.42543514 L12.7382797,18.6224351 L6.59133051,21.5710297 C7.29048305,22.4994892 9.41870339,23.9068946 11.2420932,24.1048946 C14.3379407,24.431327 16.1529407,23.1389757 16.1529407,23.1389757 L16.1529407,16.5356757 L13.7534492,14.6734054 L16.1529407,12.8111351 L16.1529407,8.05913514 C14.8441271,7.91357838 13.2528559,7.49991892 12.3243814,7.28051351 C10.956839,6.95782703 6.39836441,5.73397297 5.6824322,5.6322973 C4.9665,5.52955135 4.08277119,5.56272973 3.54861864,6.0183973 C3.0144661,6.47941622 2.68166949,7.29014595 2.91099153,8.02033784 C3.03963559,8.43346216 3.33607627,8.67534324 3.55980508,8.91133784 C3.55980508,8.91133784 3.29692373,8.88993243 2.81870339,8.61621081 C1.95734746,8.12201351 1.30294068,7.15529189 1.22463559,5.96381351 C1.12395763,4.40121892 1.79514407,2.99381351 3.14311017,2.0493 C4.31488983,1.32954324 5.63768644,0.866651351 7.17582203,1.07802973 C9.4215,1.38305676 12.4390424,2.59781351 15.1293814,3.21321892 C16.1697203,3.45402973 16.9751441,3.5343 17.7078559,3.1275973 C18.0490424,2.88946216 18.6475169,2.28475946 18.1581102,1.47938108 C17.5848051,0.532191892 16.4885339,0.553597297 15.5600593,0.387705405 C16.3598898,0.227164865 16.5360763,0.227164865 17.1345508,0.280678378 L17.1482542,0.28817027 Z M8.08527966,20.5617649 L8.08527966,10.7147432 L4.99222881,12.0354568 C4.99222881,12.0354568 4.20358475,13.7291595 4.34061864,16.1827541 C4.44968644,18.1012135 5.57112712,20.3942676 6.43248305,21.3548351 L8.09087288,20.5655108 L8.08527966,20.5617649 Z M72.8883305,28.9216459 C72.3933305,29.0607811 70.2427373,28.5631054 69.728161,26.4305919 C69.2247712,24.3542676 70.7349407,22.9468622 73.0113814,20.7340784 L70.323839,18.3821595 L70.323839,13.8923757 C70.323839,13.8923757 72.3010424,12.9478622 73.8475678,12.0247541 C75.3968898,11.0962946 76.9797712,10.0929162 76.9797712,10.0929162 C76.9797712,10.0929162 78.1347712,11.4896189 79.4407881,11.3772405 C81.4851102,11.2059973 81.3900254,9.66480811 81.3312966,9.30091622 C81.6808729,9.89759189 82.6149407,11.6688892 79.0212966,15.6315649 L81.9409576,17.8844838 L81.9409576,23.7174568 C81.9409576,23.7174568 78.5430763,25.4084838 75.3297712,27.6533757 C75.3297712,27.6533757 73.5371441,25.5048081 71.9794322,26.5295919 C70.9279068,27.2225919 71.4089237,28.3918622 72.8855339,28.9189703 L72.8883305,28.9216459 Z M70.3601949,24.4291865 C70.3601949,24.4291865 71.9039237,21.9889703 74.5579068,22.5134027 C77.102822,23.0191054 77.9865508,25.5904297 77.9865508,25.5904297 L77.9865508,19.6662162 L76.2107034,18.1892432 C74.2614661,20.0640892 70.7908729,22.7753514 70.3629915,24.4289189 L70.3601949,24.4291865 Z M74.297822,12.0595378 L74.297822,16.7232405 L75.9226525,18.0771324 C75.9226525,18.0771324 79.449178,15.3773757 80.7300254,12.8756189 C80.7300254,12.8756189 79.1471441,14.9332135 77.0133305,14.3044297 C75.2290932,13.782673 74.3006186,12.0595378 74.3006186,12.0595378 L74.297822,12.0595378 Z" id="Shape"></path>
                            </g>
                            <g id="Group" transform="translate(0.000000, 36.389189)">
                                <path d="M5.53337288,29.2692162 C3.60930508,29.0597108 2.80108475,27.9434189 2.82289831,27.0628541 C2.83688136,26.4982865 3.37215254,25.3926973 4.54225424,25.2423243 C5.71123729,25.0871351 6.90678814,25.6126378 7.91608475,26.7460541 L12.3604576,22.0475676 L12.1462373,21.8656216 L10.9520847,23.1432568 C9.73975424,21.8225432 8.019,20.989873 6.30467797,20.748527 L6.30467797,6.435 L17.8485254,26.5526027 C17.8485254,26.5526027 17.9592712,26.7832459 18.4338559,26.7832459 C18.842161,26.7832459 18.7442797,26.4648405 18.7442797,26.4648405 L18.742322,6.2180027 C19.6800254,6.18054324 21.1124492,5.68554324 21.8074068,5.00324595 C24.0301525,2.81721892 23.1223729,0.433191892 22.8785085,0.203083784 C22.7425932,1.24392162 21.9052881,2.29011081 20.507822,2.29546216 C18.6760424,2.30081351 17.5573983,1.00578649 17.5573983,1.00578649 L13.1163814,5.84875946 L13.3289237,6.03070541 L14.6013814,4.63935405 C16.1562966,6.00662432 17.2917203,6.13773243 18.4635,6.21265135 L18.4635,17.9588676 L9.90027966,3.08211081 C9.12561864,1.8513 7.94544915,0.773002703 6.09409322,0.756948649 C3.96866949,0.746245946 2.44451695,2.53894865 2.26273729,4.08548919 C2.05858475,5.83002973 2.28511017,6.23138108 2.28511017,6.23138108 C2.28511017,6.23138108 2.59833051,4.28616486 3.85680508,4.30221892 C4.98663559,4.31827297 5.57392373,5.31094865 6.02697458,6.05746216 L6.02697458,10.3679757 C4.86358475,10.4428946 1.83205932,10.571327 1.64748305,13.5894892 C1.6335,14.7105973 2.36341525,15.8878946 3.00104237,16.2838946 C3.82324576,16.7976243 4.46087288,16.7869216 4.46087288,16.7869216 C4.46087288,16.7869216 3.47926271,16.2865703 3.77290678,15.2992459 C4.03578814,14.4135973 5.96265254,14.2691108 6.0325678,14.6383541 L6.0325678,20.7212351 C5.10688983,20.7105324 2.14248305,20.8073919 0.80290678,23.2390459 C-0.00251694915,24.7106676 0.0450254237,26.3535324 0.906381356,27.5121 C1.60833051,28.4592892 3.05417797,29.6660189 5.54316102,29.2593162 L5.53337288,29.2692162 Z M29.9240085,9.11147838 C29.9240085,9.11147838 27.588839,10.4640324 26.0171441,11.3617216 C24.4482458,12.2527216 22.3423983,13.2346946 22.3423983,13.2346946 L22.3423983,22.6316676 L20.9357034,23.7107676 L21.1230763,23.9194703 L22.4934153,22.8625784 L26.7890085,26.5782892 L34.2559576,20.9192351 L34.0797712,20.7132081 L29.9488983,23.8135135 L26.5566102,20.7739459 L26.5571695,19.6413324 L33.3683136,14.8465216 L29.9200932,9.11254865 L29.9240085,9.11147838 Z M30.0246864,16.8690649 L26.5624831,19.296973 L26.5624831,11.2217838 L30.0274831,16.8701351 L30.0246864,16.8690649 Z M40.3637542,26.6478568 L36.7052288,23.7367216 L35.097178,24.8535486 L34.9349746,24.6314676 L36.5709915,23.4862784 L36.5709915,15.3522243 C36.6492966,12.0022784 33.3632797,12.8344135 33.5422627,9.27844054 C33.6205678,7.71584595 35.2006525,6.5331973 36.0004831,6.14254865 C36.8562458,5.72781892 37.7791271,5.72781892 37.7791271,5.72781892 C37.7791271,5.72781892 36.2821017,6.62417027 36.645661,7.91384595 C37.2049831,9.90187297 40.7538814,10.0784676 40.821,12.7247108 L40.821,21.9531162 L43.4414237,23.9625486 L44.1305085,23.4461432 L44.1305085,13.4586486 L42.7171017,12.1162622 L46.3554915,9.03655946 L49.679822,11.8567216 L48.411839,13.1720838 L48.411839,22.0258946 L51.5272627,24.4848405 L52.0809915,24.1450297 L52.0809915,13.4878135 L50.6631102,12.2195432 L54.3098898,9.03013784 L57.7189576,11.7245432 L59.0809068,10.571327 L59.2654831,10.7746784 L56.2003983,13.3513541 L56.2003983,22.039273 L48.3531102,26.6681919 L44.3427712,23.6286243 L40.3631949,26.6467865 L40.3637542,26.6478568 Z M99.2997966,12.9874622 L100.617,11.8272892 L100.805212,12.0306405 L99.5226864,13.1696757 L99.5226864,22.4435676 C99.5226864,22.4435676 97.086839,23.6797297 95.3865,24.5974865 C93.6889576,25.5152432 91.871161,26.5962162 91.871161,26.5962162 L87.402178,22.9947568 L86.2220085,23.9794054 L86.0304407,23.7760541 L87.2721356,22.7405676 L87.2721356,12.7683243 L87.2889153,12.7683243 C87.2889153,12.7683243 89.3975593,11.8559189 91.1762034,10.8942811 C92.7674746,10.0353892 94.5475169,9.04271351 94.5475169,9.04271351 L99.3031525,12.9946865 L99.2997966,12.9874622 Z M91.5112373,21.1589757 L95.2894576,24.4286514 L95.2894576,14.4216243 L91.5112373,11.0770297 L91.5112373,21.1616514 L91.5112373,21.1589757 Z M108.092339,12.0509757 L110.933695,9.27415946 C110.933695,9.27415946 111.32522,9.60139459 111.691576,9.77344054 C111.899364,9.86976486 112.759881,10.2943946 113.548525,9.8810027 C113.976407,9.65490811 114.037932,9.59604324 114.505525,9.17194865 C114.601449,11.3301486 113.518322,12.8493973 112.167559,13.4776459 C111.613831,13.7353135 109.998788,14.2295108 108.308237,12.2588757 L108.308237,22.2364703 L110.106458,23.7562541 L111.60628,22.5709297 L111.779669,22.7823081 L107.079686,26.5362811 L103.50478,23.4244703 L102.218339,24.5830378 L102.008593,24.3681811 L103.967619,22.6771541 L103.984398,14.0641541 L102.4815,12.159073 L101.189466,13.248073 L101.002093,13.050073 L105.554975,9.13609459 L108.097093,12.0568622 L108.092339,12.0509757 Z M120.071059,16.2121865 L125.323093,8.90491622 C125.323093,8.90491622 126.016093,9.68888919 127.221992,9.99471892 C128.861644,10.4014216 130.292669,8.88698919 130.292669,8.88698919 C130.018602,10.8429081 128.982458,13.0583676 126.844449,13.3981784 C124.960653,13.6994595 123.208856,12.2984757 123.208856,12.2984757 L122.867669,12.8041784 L130.157314,23.3383135 L131.615746,22.1155297 L131.803119,22.3188811 L126.799983,26.5017649 L120.068542,16.2137919 L120.071059,16.2121865 Z" id="Shape"></path>
                                <path d="M115.712542,6.45640541 C115.712542,4.87775676 115.036602,3.90595135 114.153992,3.97605405 L119.88089,0.126291892 L119.88089,21.9143189 L119.881729,21.9143189 L121.394136,23.4386514 L122.539907,22.4861108 L122.720008,22.6894622 L118.104763,26.5424351 L114.978153,23.7329757 L113.72639,24.7845162 L113.528669,24.5784892 L115.712822,22.7590297 L115.712822,6.44837838 L115.712542,6.45640541 Z M67.8348559,6.08876757 C67.8348559,4.61848378 67.2112119,3.79731892 66.198839,3.77564595 C64.7446017,3.74353784 64.397822,5.71015946 64.397822,5.71015946 C64.397822,5.71015946 64.1349407,4.1984027 65.4577373,2.82310541 C66.2044322,2.05518649 67.5915508,0.976889189 69.7645169,1.47724054 C72.0073983,1.9989973 72.6450254,3.66326757 72.6450254,5.13488919 L72.6450254,25.4031324 C72.6450254,25.4031324 73.4923983,25.5021324 74.0740932,25.6252135 C74.7480763,25.7589973 75.3885,25.9302405 75.3885,25.9302405 L75.3885,1.49061892 L75.668161,1.49061892 L75.668161,4.78705135 L80.2657881,1.24178108 L83.6357034,4.11010541 L85.2073983,2.8124027 L85.3863814,3.01575405 L83.7447712,4.36964595 L83.7447712,23.2144297 C83.6636695,24.4452405 83.4567203,25.6947811 82.2429915,26.4145378 C79.5358729,27.9503757 76.2722288,26.1790784 73.3637542,25.7750514 C71.2047712,25.4700243 67.8152797,25.0767 66.9651102,26.9710784 C66.6882458,27.5945108 66.707822,28.5550784 67.6866356,29.1838622 C69.6526525,30.4414297 78.4032458,27.0754297 81.4040085,28.4105919 C84.1418898,29.6307 84.1307034,31.5571865 83.7084153,32.8843216 C82.9980763,35.3700243 79.7176525,35.8061595 79.7176525,35.8061595 C79.7176525,35.8061595 81.3229068,34.9151595 80.8670593,33.4381865 C80.6349407,32.691673 80.1063814,32.4829703 78.3892627,32.6649162 C74.6390085,33.0742946 70.1560424,34.8134838 67.1412966,33.6067541 C65.589178,32.988673 64.4901102,31.1317541 64.5963814,29.3069432 C64.6746864,26.6821054 67.8432458,25.6439432 67.8432458,25.6439432 L67.8432458,15.9312405 C67.7537542,15.5459432 66.0618051,15.6476189 65.6926525,16.3620243 C65.1305339,17.4421946 66.3918051,17.9353216 66.3918051,17.9353216 C66.3918051,17.9353216 65.3458729,18.0864973 64.4705339,17.1192405 C64.0454492,16.6472514 63.1533305,14.9934162 64.3111271,13.4631973 C65.2647712,12.2002784 66.4057881,11.980873 67.8460424,11.8310351 L67.8460424,6.10054054 L67.8348559,6.08876757 Z M75.6653644,25.9984703 C75.6653644,25.9984703 77.0021441,26.3369432 77.9725678,25.5741081 C79.0548559,24.7205676 78.9401949,23.5245405 78.9401949,23.5245405 L78.9401949,15.9764595 C78.9401949,15.9764595 78.3137542,15.2031892 77.318161,15.2031892 C76.3225678,15.2031892 75.6653644,16.0032162 75.6653644,16.0032162 L75.6653644,25.9995405 L75.6653644,25.9984703 Z M78.9401949,6.18241622 L76.7308729,4.32389189 L75.6653644,5.12927027 L75.6653644,12.1245568 C75.6653644,12.1245568 76.3225678,12.9192324 77.318161,12.9192324 C78.3137542,12.9192324 78.9429915,12.1566649 78.9429915,12.1566649 L78.9429915,6.18188108 L78.9401949,6.18241622 Z M78.9401949,12.5756757 C78.9401949,12.5756757 78.308161,13.2633243 77.3125678,13.2633243 C76.3169746,13.2633243 75.6653644,12.5703243 75.6653644,12.5703243 L75.6653644,15.5563784 C75.6653644,15.5563784 76.3169746,14.8633784 77.3125678,14.8633784 C78.308161,14.8633784 78.9401949,15.5189189 78.9401949,15.5189189 L78.9401949,12.5756757 Z" id="Shape"></path>
                            </g>
                        </g>
                        <rect id="Rectangle-6" x="0" y="0" width="150" height="130"></rect>
                    </g>
                </g>
            </g>
        </g>
    </g>
</svg>